<?xml version="1.0" standalone="no"?>
<!DOCTYPE svg PUBLIC "-//W3C//DTD SVG 20010904//EN"
 "http://www.w3.org/TR/2001/REC-SVG-20010904/DTD/svg10.dtd">
<svg version="1.0" xmlns="http://www.w3.org/2000/svg"
 width="1280.000000pt" height="1280.000000pt" viewBox="0 0 1280.000000 1280.000000"
 preserveAspectRatio="xMidYMid meet">
<metadata>
Created by potrace 1.15, written by Peter Selinger 2001-2017
</metadata>
<g transform="translate(0.000000,1280.000000) scale(0.100000,-0.100000)"
fill="#000000" stroke="none">
<path d="M3262 9427 l-3112 -3112 385 -385 c211 -211 386 -382 389 -380 3 3
120 120 260 260 l256 254 0 -2897 0 -2897 4930 0 4930 0 0 2897 0 2898 263
-263 262 -262 388 388 387 387 -3113 3113 -3112 3112 -3113 -3113z m5025 -349
l1913 -1913 0 -2897 0 -2898 -3830 0 -3830 0 0 2897 0 2898 1912 1912 c1052
1052 1915 1913 1918 1913 3 0 866 -861 1917 -1912z"/>
<path d="M4765 6954 c-339 -34 -629 -118 -953 -275 -251 -121 -651 -367 -636
-390 17 -28 478 -676 488 -687 11 -11 39 -1 157 56 255 123 434 184 665 227
441 82 868 37 1348 -141 184 -69 298 -120 701 -316 639 -311 830 -386 1116
-438 512 -92 1047 55 1722 472 70 44 127 84 127 89 0 6 -95 178 -212 383
l-211 373 -121 -62 c-552 -282 -1047 -323 -1610 -134 -187 63 -376 146 -731
322 -663 329 -968 442 -1352 502 -95 15 -417 27 -498 19z"/>
<path d="M4740 5654 c-359 -44 -624 -122 -945 -279 -252 -124 -636 -364 -617
-388 5 -7 118 -166 251 -354 134 -189 245 -343 247 -343 2 0 54 25 114 55 395
198 722 280 1120 279 233 0 351 -14 578 -70 288 -70 502 -157 1037 -419 502
-246 680 -324 895 -389 504 -152 982 -91 1566 202 142 71 331 178 454 257 l69
44 -216 380 -216 379 -129 -64 c-339 -170 -574 -233 -893 -241 -216 -6 -332 7
-538 58 -238 60 -399 128 -1002 421 -209 102 -441 210 -515 241 -253 104 -503
177 -725 212 -96 15 -460 28 -535 19z"/>
<path d="M4785 4384 c-337 -27 -688 -130 -1025 -299 -222 -112 -595 -348 -582
-370 4 -7 117 -168 252 -358 l244 -345 131 65 c286 144 556 227 858 264 141
17 469 7 622 -20 153 -26 318 -69 470 -121 219 -76 341 -130 850 -378 617
-300 824 -376 1133 -417 491 -65 1042 104 1694 521 l77 49 -211 370 c-115 204
-213 373 -217 378 -4 4 -81 -28 -172 -72 -332 -161 -586 -225 -899 -225 -187
-1 -291 12 -470 55 -242 59 -441 142 -981 408 -634 311 -934 420 -1309 475
-107 16 -374 27 -465 20z"/>
</g>
</svg>
